<?xml version="1.0" standalone="no"?>
<!DOCTYPE svg PUBLIC "-//W3C//DTD SVG 20010904//EN"
 "http://www.w3.org/TR/2001/REC-SVG-20010904/DTD/svg10.dtd">
<svg version="1.0" xmlns="http://www.w3.org/2000/svg"
 width="900.000000pt" height="144.000000pt" viewBox="0 0 900.000000 144.000000"
 preserveAspectRatio="xMidYMid meet">
<metadata>
Created by potrace 1.10, written by Peter Selinger 2001-2011
</metadata>
<g transform="translate(0.000000,144.000000) scale(0.100000,-0.100000)"
fill="#000000" stroke="none">
<path d="M2630 1311 c-61 -15 -101 -64 -119 -146 -5 -23 -13 -31 -34 -33 -24
-3 -28 -7 -25 -30 2 -21 10 -28 32 -32 l29 -5 -2 -146 -2 -147 28 -7 c39 -9
66 25 59 74 -3 20 -7 79 -8 131 l-3 95 50 5 c43 4 50 8 53 29 5 30 -14 42 -53
36 -47 -8 -61 6 -44 47 18 44 47 67 86 68 39 0 56 35 27 57 -19 14 -33 15 -74
4z"/>
<path d="M3183 1313 c-10 -3 -13 -61 -13 -240 l0 -234 26 -34 c26 -35 69 -51
104 -40 27 9 29 65 2 65 -10 0 -28 7 -40 16 -22 15 -22 19 -22 233 0 240 -4
256 -57 234z"/>
<path d="M3397 1292 c-21 -23 -22 -46 -1 -66 41 -41 107 5 83 58 -15 31 -57
36 -82 8z"/>
<path d="M721 1229 c-83 -44 -131 -121 -131 -210 0 -33 6 -63 15 -75 30 -39
19 -59 -99 -177 -63 -63 -121 -117 -129 -120 -8 -3 -27 3 -43 14 -63 41 -174
18 -243 -51 -96 -96 -92 -243 10 -334 95 -85 219 -84 309 4 33 33 52 61 60 91
15 54 7 142 -15 175 -16 25 -16 25 114 156 130 130 131 131 152 112 30 -27
168 -27 198 0 20 18 21 18 150 -112 137 -138 140 -144 104 -197 -34 -50 0
-160 72 -230 117 -113 317 -62 370 94 23 69 20 104 -17 186 -7 17 10 39 118
148 99 99 130 125 140 116 28 -23 106 -35 163 -25 46 8 62 18 105 61 91 92
100 208 24 307 -46 59 -108 88 -188 88 -48 0 -71 -4 -80 -15 -7 -8 -18 -15
-25 -15 -16 0 -95 -79 -95 -95 0 -7 -7 -26 -15 -41 -20 -40 -19 -87 5 -134 11
-22 20 -45 20 -53 0 -7 -53 -66 -117 -130 -123 -123 -144 -134 -187 -102 -29
22 -109 19 -153 -5 -21 -11 -42 -19 -48 -19 -5 1 -66 60 -134 130 l-125 128
20 22 c16 17 19 36 19 104 0 83 -1 84 -41 131 -60 71 -105 93 -184 92 -42 0
-77 -7 -99 -19z m160 -87 c63 -43 72 -58 72 -122 0 -55 -3 -64 -33 -95 -36
-37 -83 -50 -140 -37 -46 10 -100 79 -100 128 0 99 125 178 201 126z m1146 2
c88 -51 97 -179 15 -239 -39 -28 -119 -27 -158 4 -31 24 -65 96 -57 121 16 50
38 83 71 105 42 29 88 32 129 9z m-1724 -570 c64 -33 80 -59 80 -125 0 -54 -3
-63 -33 -94 -62 -64 -152 -58 -207 14 -39 50 -42 89 -12 138 25 41 85 83 117
83 13 0 37 -7 55 -16z m1150 -1 c89 -50 106 -162 36 -229 -26 -25 -38 -29 -87
-29 -45 0 -64 5 -87 23 -76 60 -69 173 13 226 44 30 83 32 125 9z"/>
<path d="M2840 1139 c-141 -78 -149 -270 -15 -354 57 -36 212 -20 240 25 3 6
3 19 0 30 -8 24 -41 26 -69 5 -12 -9 -42 -15 -72 -15 -54 0 -93 21 -115 62
-19 36 2 42 134 39 145 -3 154 1 143 75 -16 119 -145 189 -246 133z m147 -75
c26 -19 33 -32 31 -51 -3 -26 -3 -26 -107 -27 -71 -1 -105 3 -108 11 -7 19 16
53 50 73 45 28 93 25 134 -6z"/>
<path d="M3408 1138 c-10 -17 -12 -69 -10 -195 3 -182 6 -193 53 -178 18 6 19
20 19 190 0 172 -1 185 -19 195 -27 14 -29 13 -43 -12z"/>
<path d="M3720 1142 c-47 -23 -95 -77 -108 -121 -6 -20 -12 -115 -14 -211 -2
-141 0 -179 12 -197 18 -28 32 -29 55 -3 15 17 17 32 13 105 -4 51 -2 88 4 91
5 4 24 -4 41 -17 26 -19 44 -24 95 -23 63 0 63 0 113 54 l49 53 0 78 c0 85
-14 121 -61 157 -68 54 -134 65 -199 34z m122 -68 c41 -19 78 -74 78 -115 0
-36 -31 -92 -63 -114 -12 -8 -41 -15 -64 -15 -131 0 -165 192 -44 247 36 16
55 15 93 -3z"/>
<path d="M4182 1140 c-48 -26 -69 -47 -92 -94 -42 -88 -18 -184 62 -247 40
-32 46 -34 118 -33 63 0 83 4 109 23 22 16 31 30 29 45 -4 27 -40 33 -70 12
-13 -10 -43 -16 -74 -16 -45 0 -55 4 -87 35 -37 36 -48 64 -24 66 6 0 71 1
142 2 l130 2 3 52 c3 52 -10 86 -49 123 -53 50 -136 63 -197 30z m131 -61 c31
-17 57 -51 54 -73 -2 -17 -13 -19 -111 -20 -115 -2 -128 3 -106 44 26 49 113
75 163 49z"/>
<path d="M4538 1149 c-16 -9 -18 -29 -18 -194 l0 -185 25 -6 c50 -12 58 8 53
136 -4 82 -1 122 8 141 15 30 80 55 119 45 37 -10 65 2 65 26 0 49 -80 63
-151 26 l-42 -22 -15 22 c-16 25 -20 26 -44 11z"/>
<path d="M4930 1142 c-43 -21 -80 -52 -80 -68 0 -6 -7 -17 -15 -24 -11 -9 -15
-33 -15 -86 0 -84 19 -125 77 -170 31 -23 45 -27 108 -28 91 -1 145 23 145 66
0 24 -4 28 -29 28 -16 0 -34 -7 -41 -15 -18 -22 -119 -20 -145 3 -86 76 -74
89 79 84 140 -5 166 3 166 47 0 35 -33 112 -57 133 -56 49 -130 60 -193 30z
m123 -63 c44 -23 77 -89 45 -89 -7 0 -57 -2 -111 -4 -75 -2 -100 0 -104 10 -6
16 30 64 60 81 28 16 82 16 110 2z"/>
<path d="M5350 1142 c-81 -39 -110 -88 -110 -191 l0 -80 49 -50 50 -51 69 0
c60 0 71 3 92 25 13 14 30 25 38 25 23 0 6 -80 -24 -111 -45 -47 -141 -44
-193 5 -33 32 -52 33 -70 4 -13 -21 -11 -25 29 -59 111 -96 289 -53 328 79 15
50 16 239 1 283 -19 55 -56 97 -106 119 -54 24 -105 25 -153 2z m121 -66 c56
-23 71 -47 72 -116 2 -59 0 -63 -36 -96 -34 -32 -43 -35 -89 -32 -48 3 -55 6
-85 46 -39 52 -43 94 -12 147 20 34 64 62 100 64 9 1 32 -5 50 -13z"/>
<path d="M5820 1142 c-128 -61 -155 -229 -53 -328 47 -46 95 -59 171 -48 66
10 136 81 146 148 16 105 -25 188 -111 226 -54 24 -105 25 -153 2z m124 -66
c43 -18 76 -72 76 -125 0 -33 -7 -49 -36 -81 -33 -36 -41 -40 -84 -40 -41 0
-54 5 -84 34 -33 31 -36 38 -36 91 0 63 21 100 68 121 36 17 57 17 96 0z"/>
<path d="M6454 1141 c-87 -47 -109 -83 -109 -182 0 -67 3 -80 27 -112 50 -65
83 -81 163 -81 58 0 77 4 103 22 37 27 41 56 11 73 -18 9 -27 7 -50 -10 -79
-59 -189 4 -189 108 0 60 29 104 79 121 44 14 81 5 122 -30 41 -37 90 10 54
50 -49 54 -150 74 -211 41z"/>
<path d="M6872 1141 c-93 -48 -129 -133 -106 -249 6 -27 45 -76 86 -108 22
-17 83 -25 138 -18 43 6 58 14 95 51 50 49 62 95 51 187 -6 41 -14 61 -38 85
-66 67 -156 88 -226 52z m129 -65 c45 -19 69 -62 69 -123 0 -44 -4 -54 -37
-86 -31 -32 -43 -37 -83 -37 -40 0 -52 5 -83 37 -33 32 -37 42 -37 87 0 58 16
88 64 117 37 23 62 24 107 5z"/>
<path d="M7267 1149 c-15 -9 -17 -29 -17 -194 0 -118 4 -186 11 -190 5 -4 21
-4 35 -1 24 6 24 7 24 131 0 134 8 166 47 184 37 17 62 13 88 -14 24 -23 25
-29 25 -159 0 -135 0 -136 24 -142 14 -3 30 -3 35 1 7 4 11 57 11 140 l0 133
31 26 c36 31 68 33 100 7 23 -18 24 -25 25 -151 0 -107 4 -134 17 -147 13 -14
21 -14 42 -5 25 12 25 12 25 142 0 151 -14 192 -75 229 -51 30 -94 27 -143 -9
l-42 -30 -42 30 c-45 33 -91 38 -122 15 -25 -19 -45 -19 -65 -1 -11 10 -21 12
-34 5z"/>
<path d="M8160 1139 c-93 -50 -131 -130 -108 -231 30 -130 183 -192 270 -110
l27 25 10 -25 c11 -28 33 -40 57 -31 14 5 16 24 12 138 -3 131 -4 132 -36 172
-60 77 -157 102 -232 62z m130 -64 c49 -25 70 -62 70 -120 0 -46 -4 -56 -37
-88 -31 -32 -43 -37 -83 -37 -40 0 -52 5 -83 37 -33 32 -37 42 -37 87 0 58 16
88 64 117 37 23 67 24 106 4z"/>
<path d="M8534 1138 c-8 -25 -7 -179 2 -245 5 -30 17 -56 43 -85 37 -42 38
-42 108 -42 56 -1 75 3 91 18 21 18 22 18 48 -3 19 -15 31 -18 44 -11 16 9 19
28 22 177 3 176 -4 213 -41 213 -36 0 -41 -21 -41 -155 l0 -131 -30 -22 c-20
-15 -44 -22 -74 -22 -38 0 -48 5 -75 35 l-31 36 0 123 c0 104 -3 125 -16 130
-28 11 -43 6 -50 -16z"/>
<path d="M1499 923 c-53 -51 -69 -73 -69 -94 0 -28 27 -46 60 -40 20 4 140
127 140 144 0 18 -21 43 -43 51 -14 4 -36 -11 -88 -61z"/>
<path d="M6177 842 c-29 -32 -21 -69 19 -90 18 -10 26 -7 48 13 30 28 32 42
10 73 -18 27 -55 29 -77 4z"/>
<path d="M7887 842 c-29 -32 -21 -69 19 -90 30 -16 79 27 68 61 -14 45 -59 60
-87 29z"/>
<path d="M657 613 c-42 -42 -67 -74 -67 -89 0 -29 44 -58 68 -45 22 12 142
138 142 149 -1 17 -40 52 -57 52 -11 0 -50 -30 -86 -67z"/>
<path d="M6831 516 c-8 -9 -11 -77 -9 -227 3 -206 4 -214 23 -214 19 0 20 8
23 216 2 175 0 218 -11 228 -11 9 -17 8 -26 -3z"/>
<path d="M7133 512 c-21 -10 -36 -27 -44 -49 -20 -62 9 -104 93 -130 88 -27
112 -65 66 -104 -33 -27 -70 -23 -113 11 -43 34 -48 35 -65 15 -11 -13 -7 -21
24 -49 61 -58 139 -60 192 -5 22 23 28 39 28 68 -2 58 -51 100 -136 115 -29 5
-39 13 -44 32 -4 14 -1 31 6 39 17 20 94 20 110 0 16 -19 60 -20 60 -1 0 8
-17 28 -37 45 -42 35 -86 39 -140 13z"/>
<path d="M3349 508 c-1 -7 -1 -74 1 -148 2 -103 6 -142 18 -163 20 -33 49 -44
69 -24 13 13 11 19 -17 51 l-33 37 9 115 c8 100 7 117 -7 130 -19 17 -39 18
-40 2z"/>
<path d="M4660 510 c-13 -7 -15 -39 -14 -213 0 -112 4 -209 8 -216 9 -14 46
-15 47 -1 0 6 0 102 0 215 0 113 0 210 0 215 -1 12 -21 12 -41 0z"/>
<path d="M4929 510 c-14 -8 -16 -31 -15 -162 1 -84 5 -159 9 -165 5 -7 17 -13
27 -13 17 0 19 12 22 163 2 89 2 168 0 175 -5 14 -21 15 -43 2z"/>
<path d="M5980 510 c-12 -7 -14 -35 -12 -157 4 -169 6 -183 33 -183 17 0 19 8
19 85 0 72 3 88 20 105 11 11 26 20 33 20 58 -1 89 -44 87 -118 -3 -83 -1 -92
19 -92 27 0 30 17 24 107 -6 72 -9 81 -40 112 -32 32 -36 33 -89 27 l-56 -6 2
37 c4 76 -3 87 -40 63z"/>
<path d="M2570 499 c0 -9 -13 -40 -50 -124 -5 -11 -18 -42 -30 -70 -12 -27
-29 -65 -38 -82 -15 -30 -15 -34 0 -49 14 -14 17 -14 37 7 11 13 21 31 21 40
0 31 21 35 157 29 7 0 16 -12 19 -27 9 -37 23 -53 45 -53 26 0 24 18 -11 93
-16 36 -30 70 -30 75 0 6 -6 23 -14 39 -18 35 -33 70 -46 106 -7 20 -16 27
-35 27 -14 0 -25 -5 -25 -11z m34 -85 c9 -3 16 -11 16 -18 0 -6 9 -28 20 -49
11 -21 18 -42 15 -47 -8 -13 -102 -13 -110 0 -3 5 1 24 9 42 8 18 17 43 21 56
7 24 7 24 29 16z"/>
<path d="M3884 495 c-7 -18 12 -45 32 -45 20 0 44 29 38 45 -8 20 -63 20 -70
0z"/>
<path d="M5560 485 c0 -31 26 -43 47 -22 21 21 9 47 -22 47 -20 0 -25 -5 -25
-25z"/>
<path d="M3736 478 c-3 -13 -7 -32 -8 -43 -3 -15 -11 -20 -37 -21 -31 0 -70
-32 -71 -57 0 -5 -6 -23 -14 -40 -8 -18 -17 -41 -21 -52 -6 -19 -7 -19 -25 5
-11 14 -22 37 -25 52 -4 15 -11 30 -16 33 -5 4 -9 14 -9 24 0 10 -6 24 -14 30
-15 12 -46 5 -46 -11 0 -6 22 -55 49 -109 l49 -99 -18 -35 c-10 -20 -23 -41
-29 -48 -16 -20 3 -41 32 -33 18 4 27 15 32 38 4 18 11 39 16 48 22 42 79 170
79 178 0 17 39 44 55 39 12 -5 15 -23 15 -82 0 -71 2 -77 30 -105 33 -33 67
-39 77 -15 6 18 -23 55 -43 55 -18 0 -26 35 -22 90 3 38 7 45 28 50 36 9 38
38 3 42 -22 2 -28 8 -29 28 -2 53 -4 60 -19 60 -8 0 -17 -10 -19 -22z"/>
<path d="M6281 482 c-6 -10 -8 -28 -5 -38 4 -15 -2 -24 -23 -33 l-28 -13 28
-22 c25 -20 27 -28 27 -89 0 -62 2 -70 31 -98 34 -33 71 -36 77 -7 2 12 -9 25
-33 39 -36 21 -36 22 -33 82 3 56 5 62 28 67 36 9 38 38 3 42 -22 2 -28 8 -29
28 -2 53 -4 60 -19 60 -8 0 -19 -8 -24 -18z"/>
<path d="M7387 482 c-9 -10 -14 -27 -11 -39 4 -15 0 -23 -15 -28 -26 -8 -27
-27 -1 -43 16 -10 20 -23 20 -66 0 -74 15 -110 55 -132 28 -15 36 -16 49 -5
19 16 9 38 -25 54 -21 11 -24 20 -27 79 l-3 66 31 7 c38 8 39 33 3 37 -24 3
-29 8 -33 42 -6 45 -19 54 -43 28z"/>
<path d="M8026 484 c-3 -9 -6 -28 -6 -44 0 -20 -6 -29 -22 -33 -22 -6 -22 -6
5 -31 25 -23 27 -30 22 -78 -7 -60 5 -90 46 -121 17 -12 34 -17 48 -12 31 9
26 30 -13 54 -30 19 -34 27 -38 73 -7 65 -2 78 27 78 22 0 40 22 28 34 -4 3
-17 6 -30 6 -19 0 -23 5 -23 29 0 39 -9 61 -25 61 -7 0 -16 -7 -19 -16z"/>
<path d="M2784 411 c-2 -2 -4 -58 -4 -123 0 -109 1 -118 19 -118 24 0 30 25
25 97 -4 46 -1 63 13 80 27 33 64 38 96 13 26 -20 27 -26 27 -106 0 -77 2 -84
20 -84 31 0 39 29 30 106 -13 124 -36 147 -145 142 -42 -2 -78 -5 -81 -7z"/>
<path d="M3101 389 c-17 -16 -36 -47 -42 -68 -10 -32 -8 -43 10 -78 27 -54 80
-87 126 -79 18 4 36 12 38 19 3 9 10 9 27 -2 21 -12 25 -11 37 5 15 20 11 141
-6 173 -21 39 -62 61 -112 61 -40 0 -52 -5 -78 -31z m142 -42 c10 -12 17 -36
17 -58 0 -30 -6 -42 -29 -58 -34 -24 -52 -26 -84 -8 -32 17 -37 27 -37 73 0
76 82 108 133 51z"/>
<path d="M4062 412 c-6 -5 -23 -23 -37 -42 -46 -62 -27 -146 41 -191 43 -28
88 -24 126 10 31 28 31 28 11 40 -22 11 -53 6 -53 -10 0 -17 -45 -9 -73 14
-23 18 -29 31 -29 60 0 51 25 77 74 77 21 0 38 -4 38 -10 0 -5 14 -10 30 -10
37 0 38 13 4 45 -21 19 -38 25 -73 25 -25 0 -52 -4 -59 -8z"/>
<path d="M4290 400 c-42 -42 -20 -107 40 -116 54 -9 74 -25 66 -52 -9 -27 -46
-29 -81 -6 -26 17 -65 11 -65 -9 0 -18 75 -57 109 -57 35 0 101 52 101 79 -1
36 -59 81 -105 81 -12 0 -28 7 -35 15 -29 35 41 62 74 29 17 -17 47 -16 53 1
2 6 -6 21 -17 33 -28 30 -111 31 -140 2z"/>
<path d="M5075 411 l-40 -6 0 -115 0 -115 25 0 c25 0 25 2 28 88 2 78 5 89 26
102 15 10 34 13 54 9 26 -5 34 -13 41 -41 6 -19 7 -57 4 -84 -6 -53 6 -79 38
-79 17 0 19 8 19 78 0 151 -42 186 -195 163z"/>
<path d="M5345 395 c-14 -13 -25 -33 -25 -44 0 -27 36 -59 74 -67 17 -3 42
-14 56 -24 25 -19 25 -19 5 -34 -26 -20 -64 -20 -86 0 -10 9 -25 14 -34 11
-48 -19 32 -83 90 -74 55 9 84 36 85 79 0 31 -5 39 -36 57 -19 12 -44 21 -54
21 -32 0 -50 11 -50 31 0 27 46 36 80 15 56 -32 82 -10 37 32 -34 32 -109 31
-142 -3z"/>
<path d="M5571 406 c-11 -13 -12 -209 0 -227 4 -7 14 -9 23 -6 22 9 24 232 2
240 -8 3 -19 0 -25 -7z"/>
<path d="M5717 396 c-15 -14 -34 -43 -41 -64 -27 -78 33 -162 116 -162 20 0
41 7 48 15 14 17 30 11 30 -10 0 -24 -42 -55 -74 -55 -17 0 -42 9 -56 20 -33
26 -50 25 -50 -2 1 -60 116 -85 178 -39 37 29 52 71 52 152 0 113 -34 161
-120 167 -48 4 -58 1 -83 -22z m136 -43 c26 -24 23 -97 -5 -123 -28 -26 -71
-26 -103 2 -19 17 -25 31 -25 63 0 75 76 108 133 58z"/>
<path d="M6456 399 c-50 -40 -27 -102 45 -115 19 -4 44 -15 56 -24 22 -17 22
-18 4 -34 -22 -20 -65 -21 -81 -1 -15 19 -34 19 -49 2 -16 -20 28 -58 76 -63
44 -5 78 10 105 47 35 47 -6 92 -104 113 -19 4 -28 13 -28 26 0 27 43 37 75
16 27 -18 65 -21 65 -6 0 5 -10 21 -22 35 -29 33 -102 35 -142 4z"/>
<path d="M7552 408 c-18 -18 -16 -222 2 -237 25 -21 38 12 35 92 -4 89 4 102
66 112 69 10 57 45 -15 45 -16 0 -32 -5 -35 -10 -4 -7 -13 -7 -24 0 -12 6 -22
5 -29 -2z"/>
<path d="M7757 396 c-30 -27 -57 -77 -57 -104 0 -28 26 -75 57 -102 33 -29
107 -35 123 -10 8 13 13 13 30 2 33 -20 50 1 50 62 0 117 -44 176 -129 176
-37 0 -54 -6 -74 -24z m136 -49 c26 -31 22 -83 -9 -112 -33 -30 -57 -31 -95
-4 -24 17 -29 27 -29 63 0 78 82 111 133 53z"/>
<path d="M8209 389 c-62 -60 -48 -163 28 -210 25 -16 44 -20 70 -16 38 7 73
32 73 54 0 15 -46 18 -55 3 -19 -30 -105 8 -105 47 0 17 8 19 83 18 l82 0 3
41 c3 36 -1 45 -28 68 -46 39 -108 37 -151 -5z m125 -30 c14 -11 24 -25 21
-30 -9 -13 -135 -11 -135 2 0 18 41 49 65 49 12 0 34 -9 49 -21z"/>
<path d="M8477 400 c-32 -25 -57 -74 -57 -111 0 -32 30 -89 46 -89 6 0 17 -7
24 -15 17 -21 89 -20 105 2 12 16 35 11 35 -7 0 -18 -56 -60 -80 -60 -14 0
-40 9 -59 21 -27 16 -36 18 -42 7 -13 -20 -11 -25 19 -47 60 -42 107 -40 162
9 l35 31 0 109 0 110 -33 30 c-27 25 -42 30 -81 30 -33 0 -56 -6 -74 -20z
m131 -56 c30 -34 29 -79 -4 -109 -50 -47 -119 -21 -130 47 -6 32 -2 41 25 69
37 37 72 34 109 -7z"/>
<path d="M8700 410 c-10 -6 1 -35 39 -112 51 -103 52 -104 36 -138 -8 -19 -21
-43 -27 -52 -17 -24 5 -48 29 -32 19 12 25 21 53 89 12 28 42 92 68 143 36 73
43 95 34 104 -14 14 -40 3 -53 -23 -16 -29 -38 -85 -41 -104 -5 -28 -30 -25
-44 5 -23 47 -44 98 -44 108 0 13 -35 21 -50 12z"/>
<path d="M3892 293 l3 -118 25 0 25 0 0 115 0 115 -28 3 -28 3 3 -118z"/>
</g>
</svg>
